<svg width="27" height="27" viewBox="0 0 27 27" fill="none" xmlns="http://www.w3.org/2000/svg">
<path d="M23.4449 5.18635C22.8703 4.61148 22.1881 4.15545 21.4372 3.84432C20.6863 3.53319 19.8814 3.37305 19.0686 3.37305C18.2558 3.37305 17.451 3.53319 16.7001 3.84432C15.9492 4.15545 15.267 4.61148 14.6924 5.18635L13.4999 6.37885L12.3074 5.18635C11.1467 4.0257 9.57255 3.37365 7.93114 3.37365C6.28973 3.37365 4.71554 4.0257 3.55489 5.18635C2.39424 6.347 1.74219 7.92119 1.74219 9.5626C1.74219 11.204 2.39424 12.7782 3.55489 13.9389L4.74739 15.1314L13.4999 23.8838L22.2524 15.1314L23.4449 13.9389C24.0198 13.3643 24.4758 12.682 24.7869 11.9311C25.0981 11.1802 25.2582 10.3754 25.2582 9.5626C25.2582 8.7498 25.0981 7.94497 24.7869 7.19408C24.4758 6.44318 24.0198 5.76095 23.4449 5.18635V5.18635Z" stroke="#3D0179" stroke-opacity="0.53" stroke-width="2" stroke-linecap="round" stroke-linejoin="round"/>
</svg>
